# Blender v2.93.1 OBJ File: 'ship9.blend'
# www.blender.org
mtllib ship9.mtl
o ship_Cube.004
v 0.160669 -0.012976 -0.331859
v 0.294309 -0.012976 -1.609854
v 0.429877 -0.012976 0.341116
v 0.252297 -0.089221 -0.489999
v 0.223985 -0.084738 -0.489999
v 0.227601 -0.094156 -0.489999
v 0.245948 -0.097061 -0.489999
v 0.252606 -0.114403 -0.489999
v 0.222569 -0.125935 -0.489999
v 0.215911 -0.108593 -0.489999
v 0.262570 -0.115981 -0.489999
v 0.216220 -0.133775 -0.489999
v 0.205947 -0.107015 -0.489999
v 0.205947 -0.107015 -0.524433
v 0.223985 -0.084738 -0.524433
v 0.216220 -0.133775 -0.524433
v 0.262570 -0.115981 -0.524433
v 0.252297 -0.089221 -0.524433
v 0.218624 -0.109023 -0.524433
v 0.228585 -0.096720 -0.524433
v 0.224297 -0.123800 -0.524433
v 0.249893 -0.113974 -0.524433
v 0.244220 -0.099196 -0.524433
v 0.218624 -0.109023 -0.446138
v 0.228585 -0.096720 -0.446138
v 0.224297 -0.123800 -0.446138
v 0.249893 -0.113974 -0.446138
v 0.244220 -0.099196 -0.446138
v 0.323216 -0.063998 -0.160078
v 0.323216 0.063997 -0.160078
v 0.323216 -0.063998 0.160077
v 0.160078 0.063997 0.280732
v 0.160078 -0.063998 0.280732
v 3.341836 0.000000 -1.240072
v 0.160077 -0.063998 -0.519571
v 0.160078 -0.124505 0.160078
v 0.160078 0.241840 0.160078
v 0.160078 -0.124505 -0.160078
v 0.160078 0.241840 -0.160078
v 0.323216 0.063997 0.160077
v 0.160077 0.063997 -0.519571
v 0.204930 -0.043172 0.123862
v 0.423988 -0.043172 0.257436
v 0.370978 -0.043172 -1.578809
v 0.595591 -0.043173 -0.539623
v 0.227134 -0.043172 -0.293985
v 0.884311 -0.043172 -0.117859
v 0.506729 -0.028074 -1.575347
v 0.204930 0.047416 0.123862
v 0.423988 0.047416 0.257436
v 0.370978 0.047416 -1.578809
v 0.595591 0.047415 -0.539623
v 0.227134 0.047416 -0.293985
v 0.884311 0.047416 -0.117859
v 0.134480 0.017220 0.160994
v 0.429877 0.017220 0.341116
v 0.294309 0.017220 -1.609854
v 0.498196 0.017220 -1.611323
v 0.498196 -0.012976 -1.611323
v 0.901256 -0.012976 -0.046412
v 0.901256 0.017220 -0.046412
v 0.134480 -0.012976 0.160994
v 0.518917 -0.012977 -0.570690
v 0.518917 0.017219 -0.570690
v 0.160669 0.017220 -0.331859
v 0.160077 -0.063998 -0.695894
v 0.160077 -0.000000 -0.695894
v 0.227601 -0.094156 -0.257093
v 0.245948 -0.097062 -0.257093
v 0.215911 -0.108593 -0.257093
v 0.222569 -0.125935 -0.219330
v 0.506729 0.032318 -1.575347
v 0.201640 -0.071012 -0.257093
v 0.252606 -0.114403 -0.219330
v 0.231677 -0.059480 -0.257093
v 0.231677 -0.059480 -0.219330
v 0.201640 -0.071012 -0.219330
v -0.160669 -0.012976 -0.331859
v -0.294308 -0.012976 -1.609854
v -0.429877 -0.012976 0.341116
v -0.252297 -0.089221 -0.489999
v -0.223985 -0.084738 -0.489999
v -0.227601 -0.094156 -0.489999
v -0.245948 -0.097061 -0.489999
v -0.252606 -0.114403 -0.489999
v -0.222569 -0.125935 -0.489999
v -0.215911 -0.108593 -0.489999
v -0.262570 -0.115981 -0.489999
v -0.216220 -0.133775 -0.489999
v -0.205947 -0.107015 -0.489999
v -0.205947 -0.107015 -0.524433
v -0.223985 -0.084738 -0.524433
v -0.216220 -0.133775 -0.524433
v -0.262570 -0.115981 -0.524433
v -0.252297 -0.089221 -0.524433
v -0.218624 -0.109023 -0.524433
v -0.228585 -0.096720 -0.524433
v -0.224297 -0.123800 -0.524433
v -0.249893 -0.113974 -0.524433
v -0.244220 -0.099196 -0.524433
v -0.218624 -0.109023 -0.446139
v -0.228585 -0.096720 -0.446139
v -0.224297 -0.123800 -0.446139
v -0.249893 -0.113974 -0.446139
v -0.244220 -0.099196 -0.446139
v -0.323216 -0.063998 -0.160078
v -0.323216 0.063997 -0.160078
v -0.323216 -0.063998 0.160077
v -0.160078 0.063997 0.280732
v -0.160078 -0.063998 0.280732
v -3.341835 0.000000 -1.240075
v -0.160077 -0.063998 -0.519571
v -0.160078 -0.124505 0.160077
v -0.160078 0.241840 0.160077
v -0.160077 -0.124505 -0.160078
v -0.160077 0.241840 -0.160078
v -0.323216 0.063997 0.160077
v -0.160077 0.063997 -0.519571
v -0.204930 -0.043172 0.123862
v -0.423988 -0.043172 0.257435
v -0.370977 -0.043172 -1.578810
v -0.595591 -0.043173 -0.539624
v -0.227133 -0.043172 -0.293985
v -0.884311 -0.043172 -0.117860
v -0.506728 -0.028074 -1.575347
v -0.204930 0.047416 0.123862
v -0.423988 0.047416 0.257435
v -0.370977 0.047416 -1.578810
v -0.595591 0.047415 -0.539624
v -0.227133 0.047416 -0.293985
v -0.884311 0.047416 -0.117860
v -0.134480 0.017220 0.160994
v -0.429877 0.017220 0.341116
v -0.294308 0.017220 -1.609854
v -0.498195 0.017220 -1.611323
v -0.498195 -0.012976 -1.611323
v -0.901256 -0.012976 -0.046413
v -0.901256 0.017220 -0.046413
v -0.134480 -0.012976 0.160994
v -0.518917 -0.012977 -0.570690
v -0.518917 0.017219 -0.570690
v -0.160669 0.017220 -0.331859
v -0.160077 -0.063998 -0.695894
v 0.000000 -0.063998 -0.792925
v -0.160077 -0.000000 -0.695894
v 0.000000 -0.033832 -0.792925
v -0.227601 -0.094156 -0.257094
v -0.245948 -0.097062 -0.257094
v -0.215911 -0.108593 -0.257094
v -0.222569 -0.125935 -0.219330
v -0.506728 0.032318 -1.575347
v -0.201640 -0.071012 -0.257094
v -0.252606 -0.114403 -0.219330
v -0.231677 -0.059480 -0.257094
v -0.231677 -0.059480 -0.219330
v -0.201640 -0.071012 -0.219330
vt 0.000000 0.000000
vt 0.000000 0.000000
vt 0.000000 0.000000
vt 0.000000 0.000000
vt 0.000000 0.000000
vt 0.000000 0.000000
vt 0.000000 0.000000
vt 0.000000 0.000000
vt 0.000000 0.000000
vt 0.000000 0.000000
vt 0.000000 0.000000
vt 0.000000 0.000000
vt 0.000000 0.000000
vt 0.000000 0.000000
vt 0.000000 0.000000
vt 0.000000 0.000000
vt 0.000000 0.000000
vt 0.259030 0.484265
vt 0.248326 0.498663
vt 0.248326 0.482991
vt 0.166408 0.484306
vt 0.181843 0.504452
vt 0.166408 0.505767
vt 0.223401 0.498772
vt 0.210339 0.482991
vt 0.223401 0.483608
vt 0.000000 0.000000
vt 0.235980 0.499287
vt 0.248326 0.482991
vt 0.248326 0.498790
vt 0.000000 0.000000
vt 0.000000 0.000000
vt 0.000000 0.000000
vt 0.000000 0.000000
vt 0.149736 0.482991
vt 0.137928 0.518822
vt 0.137928 0.484343
vt 0.000000 0.000000
vt 0.000000 0.000000
vt 0.000000 0.000000
vt 0.000000 0.000000
vt 0.000000 0.000000
vt 0.000000 0.000000
vt 0.649882 0.080899
vt 0.731931 0.245840
vt 0.649882 0.253733
vt 0.222971 0.278496
vt 0.298237 0.428714
vt 0.222971 0.422520
vt 0.222971 0.482991
vt 0.298237 0.047384
vt 0.445942 0.133835
vt 0.298237 0.133835
vt 0.075265 0.122970
vt 0.075265 0.278496
vt 0.075265 0.422520
vt 0.731931 0.392731
vt 0.357288 0.680569
vt 0.439337 0.532863
vt 0.439337 0.680569
vt 0.445943 0.457598
vt 0.298237 0.316610
vt 0.445942 0.316610
vt 0.222971 0.122970
vt 0.298236 0.284690
vt 0.590831 0.080899
vt 0.620356 0.000000
vt 0.357288 0.532863
vt 0.357288 0.457598
vt 0.590831 0.400625
vt 0.590831 0.253733
vt 0.372090 0.000000
vt 0.445942 0.047384
vt 0.000000 0.000000
vt 0.000000 0.000000
vt 0.000000 0.000000
vt 0.824585 0.018282
vt 0.792405 0.478832
vt 0.792405 0.000000
vt 0.000000 0.000000
vt 0.000000 0.000000
vt 0.571311 0.418339
vt 0.537828 0.673703
vt 0.538931 0.402402
vt 0.000000 0.000000
vt 0.732606 0.477391
vt 0.731931 0.462248
vt 0.000000 0.000000
vt 0.000000 0.000000
vt 0.000000 0.000000
vt 0.000000 0.000000
vt 0.000000 0.000000
vt 0.000000 0.000000
vt 0.507266 0.427598
vt 0.537828 0.871606
vt 0.507266 0.896813
vt 0.000000 0.000000
vt 0.000000 0.000000
vt 0.027400 0.501039
vt 0.054800 0.759431
vt 0.028489 0.770140
vt 0.000000 0.000000
vt 0.445943 0.422545
vt 0.537828 0.402402
vt 0.000000 0.000000
vt 0.000000 0.000000
vt 0.000000 0.000000
vt 0.000000 0.000000
vt 0.958207 0.703904
vt 0.986069 0.737505
vt 0.972138 0.737505
vt 0.000000 0.000000
vt 0.571311 0.402402
vt 0.585242 0.619876
vt 0.571311 0.619876
vt 0.112188 0.482991
vt 0.126119 0.577056
vt 0.112188 0.577056
vt 0.972138 0.000000
vt 0.993034 0.016919
vt 0.965172 0.016919
vt 0.000000 0.000000
vt 0.000000 0.000000
vt 0.298237 0.532863
vt 0.298237 0.457598
vt 0.298237 0.680569
vt 0.075265 0.043650
vt 0.222971 0.043650
vt 0.070409 0.556844
vt 0.084325 0.482991
vt 0.084325 0.556844
vt 0.000000 0.000000
vt 0.000000 0.000000
vt 0.000000 0.000000
vt 1.000000 0.703904
vt 0.000000 0.000000
vt 0.000000 0.000000
vt 0.000000 0.000000
vt 0.000000 0.000000
vt 0.000000 0.000000
vt 0.000000 0.000000
vt 0.000000 0.000000
vt 0.000000 0.000000
vt 0.000000 0.000000
vt 0.000000 0.000000
vt 0.000000 0.000000
vt 0.000000 0.000000
vt 0.000000 0.000000
vt 0.000000 0.000000
vt 0.166032 0.482991
vt 0.149736 0.495337
vt 0.150234 0.482991
vt 0.000000 0.000000
vt 0.000000 0.000000
vt 0.000000 0.000000
vt 0.000000 0.000000
vt 0.000000 0.000000
vt 0.000000 0.000000
vt 0.000000 0.000000
vt 0.165535 0.495337
vt 0.150609 0.505615
vt 0.000000 0.000000
vt 0.181843 0.504452
vt 0.197277 0.484306
vt 0.197277 0.505767
vt 0.210339 0.482991
vt 0.197277 0.498772
vt 0.197277 0.483608
vt 0.235980 0.499332
vt 0.223401 0.482991
vt 0.235980 0.483660
vt 0.000000 0.000000
vt 0.000000 0.000000
vt 0.000000 0.000000
vt 0.000000 0.000000
vt 0.000000 0.000000
vt 0.137928 0.518822
vt 0.126119 0.482991
vt 0.137928 0.484343
vt 0.000000 0.000000
vt 0.444465 0.470822
vt 0.439337 0.460558
vt 0.444465 0.457598
vt 0.000000 0.000000
vt 0.000000 0.000000
vt 0.000000 0.000000
vt 0.000000 0.000000
vt 0.000000 0.000000
vt 0.000000 0.000000
vt 0.508897 0.321643
vt 0.504911 0.145705
vt 0.590831 0.157322
vt 0.000000 0.428714
vt 0.075265 0.482991
vt 0.504911 0.000000
vt 0.590831 0.011618
vt 0.000000 0.284690
vt 0.479413 0.402145
vt 0.449928 0.322156
vt 0.357288 0.755834
vt 0.445942 0.000513
vt 0.445942 0.146218
vt 0.000000 0.000000
vt 0.000000 0.000000
vt 0.651304 0.418896
vt 0.683484 0.879446
vt 0.651304 0.897728
vt 0.000000 0.000000
vt 0.683485 0.423984
vt 0.716968 0.679348
vt 0.684588 0.695285
vt 0.000000 0.000000
vt 0.591506 0.420337
vt 0.683485 0.400625
vt 0.000000 0.000000
vt 0.000000 0.000000
vt 0.000000 0.000000
vt 0.000000 0.000000
vt 0.000000 0.000000
vt 0.916470 0.025207
vt 0.885908 0.469215
vt 0.885908 0.000000
vt 0.000000 0.000000
vt 0.027400 0.493701
vt 0.000000 0.752092
vt 0.001089 0.482991
vt 0.000000 0.000000
vt 0.824585 0.474268
vt 0.824703 0.455921
vt 0.730899 0.400625
vt 0.716968 0.866538
vt 0.716968 0.400625
vt 0.930502 0.742723
vt 0.958206 0.708924
vt 0.944414 0.742723
vt 0.000000 0.000000
vt 0.098257 0.482991
vt 0.084325 0.700465
vt 0.084325 0.482991
vt 0.112188 0.482991
vt 0.098257 0.577056
vt 0.098257 0.482991
vt 0.920220 0.017019
vt 0.941028 0.000000
vt 0.948045 0.017019
vt 0.298237 0.755834
vt 0.084325 0.630697
vt 0.054800 0.630697
vt 0.000000 0.000000
vt 0.000000 0.000000
vt 0.000000 0.000000
vt 0.916470 0.708924
vt 0.000000 0.000000
vt 0.000000 0.000000
vt 0.000000 0.000000
vt 0.000000 0.000000
vt 0.149118 0.000000
vt 0.000000 0.000000
vt 0.259030 0.499937
vt 0.181843 0.482991
vt 0.210339 0.498155
vt 0.235980 0.483488
vt 0.149736 0.517470
vt 0.000000 0.000000
vt 0.649882 0.400625
vt 0.298237 0.457598
vt 0.590831 0.000000
vt 0.824585 0.497103
vt 0.571311 0.697062
vt 0.000000 0.000000
vt 0.000000 0.000000
vt 0.054800 0.482991
vt 0.446061 0.440892
vt 0.585242 0.402402
vt 0.126119 0.482991
vt 0.986069 0.000000
vt 0.054800 0.482991
vt 0.000000 0.000000
vt 0.000000 0.000000
vt 0.000000 0.000000
vt 0.166408 0.505615
vt 0.181843 0.482991
vt 0.210339 0.498155
vt 0.223401 0.498663
vt 0.126119 0.517470
vt 0.439337 0.467861
vt 0.449928 0.402402
vt 0.716968 0.400625
vt 0.590831 0.435480
vt 0.000000 0.000000
vt 0.916470 0.494411
vt 0.027400 0.770140
vt 0.730899 0.866538
vt 0.098257 0.700465
vt 0.112188 0.577056
vt 0.927116 0.000000
vn 0.0243 -0.9996 -0.0167
vn 0.0000 0.0000 1.0000
vn 0.0000 0.0000 -1.0000
vn -0.9336 -0.3584 0.0000
vn -0.7772 0.6293 0.0000
vn 0.3584 -0.9336 0.0000
vn 0.1564 0.9877 0.0000
vn 0.9336 0.3584 0.0000
vn -0.3584 0.9336 -0.0000
vn 0.7772 -0.6293 -0.0000
vn -0.1564 -0.9877 0.0000
vn 0.6989 0.6411 -0.3171
vn 0.3477 -0.9376 0.0000
vn 0.3147 -0.8485 0.4255
vn 0.0000 0.9400 -0.3412
vn 0.0000 -0.9861 -0.1660
vn 0.0000 -1.0000 -0.0000
vn 0.7369 0.6760 -0.0000
vn -0.0000 0.5614 0.8275
vn 0.0000 1.0000 0.0000
vn 0.0000 0.8963 -0.4434
vn 0.3435 -0.9261 -0.1559
vn 1.0000 0.0000 -0.0000
vn 0.5220 0.4789 0.7058
vn 0.9106 0.0000 -0.4132
vn 0.0000 0.9442 -0.3292
vn -0.2103 -0.9148 0.3449
vn -0.3948 -0.9148 0.0853
vn -0.4034 -0.9148 -0.0214
vn 0.2626 -0.9095 0.3221
vn -0.2241 -0.9148 -0.3361
vn 0.1112 -0.9067 -0.4069
vn -0.2103 0.9148 0.3449
vn -0.3948 0.9148 0.0853
vn -0.4034 0.9148 -0.0214
vn 0.2626 0.9095 0.3221
vn -0.2241 0.9148 -0.3361
vn -0.0050 0.7229 -0.6909
vn -0.5547 0.0000 -0.8321
vn -0.9774 -0.0000 0.2113
vn 0.9730 0.0000 -0.2308
vn -0.5206 0.0000 0.8538
vn 0.6351 0.0000 0.7725
vn -0.0072 0.0000 -1.0000
vn 0.5946 0.0000 0.8040
vn 0.5184 0.0000 -0.8552
vn 0.9680 0.0000 -0.2508
vn -0.9349 -0.3550 0.0000
vn 0.9345 0.3561 -0.0012
vn 0.9336 -0.3584 0.0000
vn 0.7772 0.6293 0.0000
vn -0.3584 -0.9336 0.0000
vn -0.1564 0.9877 -0.0000
vn -0.9336 0.3584 -0.0000
vn 0.3584 0.9336 0.0000
vn -0.7772 -0.6293 -0.0000
vn 0.1564 -0.9877 0.0000
vn -0.6989 0.6411 -0.3171
vn -0.3477 -0.9376 -0.0000
vn -0.3147 -0.8485 0.4255
vn -0.7369 0.6760 -0.0000
vn -0.3435 -0.9261 -0.1559
vn -1.0000 0.0000 -0.0000
vn -0.5220 0.4789 0.7058
vn -0.9106 0.0000 -0.4132
vn 0.2103 -0.9148 0.3449
vn 0.3948 -0.9148 0.0853
vn 0.4034 -0.9148 -0.0214
vn -0.2626 -0.9095 0.3221
vn 0.2241 -0.9148 -0.3361
vn 0.0050 -0.7229 -0.6909
vn -0.0243 0.9996 -0.0167
vn 0.2103 0.9148 0.3449
vn 0.3948 0.9148 0.0853
vn 0.4034 0.9148 -0.0214
vn -0.2626 0.9095 0.3221
vn 0.2241 0.9148 -0.3361
vn -0.1112 0.9067 -0.4069
vn 0.5547 0.0000 -0.8321
vn 0.9774 -0.0000 0.2113
vn -0.9730 0.0000 -0.2308
vn 0.5206 0.0000 0.8538
vn -0.6351 0.0000 0.7725
vn 0.0072 0.0000 -1.0000
vn -0.5946 0.0000 0.8040
vn -0.5184 0.0000 -0.8552
vn -0.9680 0.0000 -0.2508
vn 0.9345 -0.3561 0.0012
vn -0.9345 0.3561 -0.0012
vn -0.0000 -0.8939 0.4483
vn 0.1111 -0.9935 -0.0240
vn 0.2565 -0.9148 0.3120
vn -0.0050 -0.7229 -0.6909
vn 0.0243 0.9996 -0.0167
vn 0.1111 0.9935 -0.0240
vn 0.2565 0.9148 0.3120
vn 0.1112 0.9067 -0.4069
vn -0.9345 -0.3561 0.0012
vn 0.9349 0.3550 0.0000
vn -0.0243 -0.9996 -0.0167
vn -0.1111 -0.9935 -0.0240
vn -0.2565 -0.9148 0.3120
vn -0.1112 -0.9067 -0.4069
vn -0.1111 0.9935 -0.0240
vn -0.2565 0.9148 0.3120
vn 0.0050 0.7229 -0.6909
vn 0.9349 -0.3550 0.0000
vn -0.9349 0.3550 -0.0000

s off
f 45/1/1 48/2/1 47/3/1
f 9/4/2 11/5/2 8/6/2
f 16/7/3 19/8/3 21/9/3
f 13/10/4 16/7/4 12/11/4
f 6/12/2 4/13/2 5/14/2
f 17/15/3 21/9/3 22/16/3
f 10/17/2 12/11/2 9/4/2
f 5/18/5 14/19/5 13/20/5
f 10/17/2 5/14/2 13/10/2
f 12/21/6 17/22/6 11/23/6
f 5/24/7 18/25/7 15/26/7
f 7/27/2 11/5/2 4/13/2
f 11/28/8 18/29/8 4/30/8
f 74/31/6 9/4/6 8/6/6
f 15/32/3 23/33/3 20/34/3
f 21/35/9 27/36/9 22/37/9
f 14/38/3 20/34/3 19/8/3
f 18/39/3 22/16/3 23/33/3
f 28/40/3 26/41/3 24/42/3
f 19/8/8 26/41/8 21/9/8
f 22/16/4 28/40/4 23/33/4
f 20/34/10 24/42/10 19/8/10
f 23/33/11 25/43/11 20/34/11
f 41/44/12 39/45/12 30/46/12
f 38/47/13 31/48/13 36/49/13
f 33/50/14 36/49/14 31/48/14
f 67/51/15 118/52/15 41/53/15
f 112/54/16 38/47/16 115/55/16
f 113/56/17 38/47/17 36/49/17
f 37/57/18 30/46/18 39/45/18
f 109/58/19 37/59/19 114/60/19
f 114/61/20 39/62/20 116/63/20
f 118/52/21 39/62/21 41/53/21
f 38/47/22 35/64/22 29/65/22
f 35/66/23 67/67/23 41/44/23
f 37/59/24 32/68/24 40/69/24
f 30/46/23 31/70/23 29/71/23
f 35/66/25 30/46/25 29/71/25
f 146/72/26 145/73/26 67/51/26
f 43/74/27 62/75/27 42/76/27
f 63/77/28 44/78/28 45/79/28
f 42/76/29 1/80/29 46/81/29
f 60/82/30 43/83/30 47/84/30
f 46/81/31 63/85/31 45/1/31
f 44/78/32 59/86/32 48/87/32
f 52/88/20 53/89/20 54/90/20
f 50/91/33 55/92/33 56/93/33
f 51/94/34 64/95/34 52/96/34
f 49/97/35 65/98/35 55/92/35
f 50/99/36 61/100/36 54/101/36
f 53/89/37 64/102/37 65/98/37
f 51/94/38 58/103/38 57/104/38
f 62/75/2 132/105/2 139/106/2
f 1/80/39 64/102/39 63/85/39
f 63/85/40 57/107/40 2/108/40
f 47/109/41 61/110/41 60/111/41
f 3/112/42 55/92/42 62/75/42
f 60/113/43 56/114/43 3/115/43
f 2/116/44 58/117/44 59/118/44
f 59/119/41 72/120/41 48/121/41
f 65/98/3 78/122/3 142/123/3
f 55/92/20 142/123/20 132/105/20
f 40/69/45 33/124/45 31/125/45
f 110/126/2 32/68/2 109/58/2
f 35/64/17 143/127/17 66/128/17
f 146/129/46 66/130/46 144/131/46
f 70/132/5 6/12/5 10/17/5
f 9/4/4 70/132/4 10/17/4
f 69/133/8 8/6/8 7/27/8
f 68/134/7 7/27/7 6/12/7
f 48/121/47 54/135/47 47/109/47
f 68/134/3 75/136/3 69/133/3
f 70/132/48 77/137/48 73/138/48
f 69/133/49 76/139/49 74/31/49
f 74/31/2 77/137/2 71/140/2
f 68/134/3 70/132/3 73/138/3
f 122/141/17 123/142/17 124/143/17
f 88/144/2 86/145/2 85/146/2
f 93/147/3 96/148/3 91/149/3
f 93/150/50 90/151/50 89/152/50
f 83/153/2 81/154/2 84/155/2
f 94/156/3 98/157/3 93/147/3
f 89/158/2 87/159/2 86/145/2
f 91/160/51 82/161/51 90/151/51
f 87/159/2 82/162/2 83/153/2
f 89/163/52 94/164/52 93/165/52
f 82/166/53 95/167/53 81/168/53
f 84/155/2 88/144/2 85/146/2
f 95/169/54 88/170/54 81/171/54
f 153/172/52 86/145/52 150/173/52
f 92/174/3 100/175/3 95/176/3
f 98/177/55 104/178/55 103/179/55
f 91/149/3 97/180/3 92/174/3
f 95/181/3 99/182/3 94/183/3
f 103/184/3 104/185/3 105/186/3
f 103/184/54 96/148/54 98/157/54
f 105/186/50 99/187/50 100/175/50
f 101/188/56 97/180/56 96/148/56
f 102/189/57 100/175/57 97/180/57
f 118/190/58 107/191/58 116/192/58
f 108/193/59 115/55/59 113/56/59
f 110/194/60 108/193/60 113/56/60
f 116/192/61 117/195/61 114/196/61
f 115/55/62 106/197/62 112/54/62
f 145/198/63 112/199/63 118/190/63
f 114/60/64 117/200/64 109/58/64
f 108/201/63 107/191/63 106/202/63
f 107/191/65 112/199/65 106/202/65
f 120/203/66 139/106/66 80/204/66
f 121/205/67 140/206/67 122/207/67
f 119/208/68 78/122/68 139/106/68
f 120/209/69 137/210/69 124/211/69
f 123/142/70 140/212/70 78/122/70
f 121/205/71 136/213/71 79/214/71
f 129/215/72 151/216/72 131/217/72
f 127/218/73 132/105/73 126/219/73
f 141/220/74 128/221/74 129/222/74
f 126/219/75 142/123/75 130/223/75
f 138/224/76 127/225/76 131/226/76
f 130/223/77 141/227/77 129/215/77
f 128/221/78 135/228/78 151/229/78
f 141/227/79 78/122/79 140/212/79
f 134/230/80 140/231/80 79/232/80
f 138/233/81 124/234/81 137/235/81
f 139/106/82 133/236/82 80/204/82
f 133/237/83 137/238/83 80/239/83
f 135/240/84 79/241/84 136/242/84
f 151/243/81 136/244/81 125/245/81
f 110/126/85 117/200/85 108/246/85
f 146/129/86 143/247/86 145/248/86
f 83/153/51 149/249/51 87/159/51
f 86/145/50 149/249/50 150/173/50
f 85/146/54 148/250/54 84/155/54
f 84/155/53 147/251/53 83/153/53
f 131/252/87 125/245/87 124/234/87
f 154/253/3 147/251/3 148/250/3
f 149/249/88 156/254/88 150/173/88
f 155/255/89 148/250/89 153/172/89
f 156/254/2 153/172/2 150/173/2
f 147/251/3 152/256/3 149/249/3
f 143/127/17 144/257/17 66/128/17
f 110/194/90 36/49/90 33/50/90
f 1/80/17 139/106/17 78/122/17
f 47/3/17 43/74/17 46/81/17
f 43/74/17 42/76/17 46/81/17
f 46/81/17 45/1/17 47/3/17
f 45/1/91 44/258/91 48/2/91
f 9/4/2 12/11/2 11/5/2
f 16/7/3 14/38/3 19/8/3
f 13/10/4 14/38/4 16/7/4
f 6/12/2 7/27/2 4/13/2
f 17/15/3 16/7/3 21/9/3
f 10/17/2 13/10/2 12/11/2
f 5/18/5 15/259/5 14/19/5
f 10/17/2 6/12/2 5/14/2
f 12/21/6 16/260/6 17/22/6
f 5/24/7 4/261/7 18/25/7
f 7/27/2 8/6/2 11/5/2
f 11/28/8 17/262/8 18/29/8
f 74/31/6 71/140/6 9/4/6
f 15/32/3 18/39/3 23/33/3
f 21/35/9 26/263/9 27/36/9
f 14/38/3 15/32/3 20/34/3
f 18/39/3 17/15/3 22/16/3
f 24/42/3 25/43/3 28/40/3
f 28/40/3 27/264/3 26/41/3
f 19/8/8 24/42/8 26/41/8
f 22/16/4 27/264/4 28/40/4
f 20/34/10 25/43/10 24/42/10
f 23/33/11 28/40/11 25/43/11
f 38/47/13 29/65/13 31/48/13
f 67/51/15 145/73/15 118/52/15
f 112/54/16 35/64/16 38/47/16
f 113/56/17 115/55/17 38/47/17
f 37/57/18 40/265/18 30/46/18
f 109/58/19 32/68/19 37/59/19
f 114/61/20 37/266/20 39/62/20
f 118/52/21 116/63/21 39/62/21
f 35/66/23 66/267/23 67/67/23
f 30/46/23 40/265/23 31/70/23
f 35/66/25 41/44/25 30/46/25
f 43/74/27 3/112/27 62/75/27
f 63/77/28 2/268/28 44/78/28
f 42/76/29 62/75/29 1/80/29
f 60/82/92 3/269/92 43/83/92
f 46/81/31 1/80/31 63/85/31
f 44/78/93 2/268/93 59/86/93
f 49/97/20 50/91/20 53/89/20
f 50/91/20 54/90/20 53/89/20
f 54/90/94 72/270/94 52/88/94
f 72/270/95 51/271/95 52/88/95
f 50/91/33 49/97/33 55/92/33
f 51/94/34 57/104/34 64/95/34
f 49/97/35 53/89/35 65/98/35
f 50/99/96 56/272/96 61/100/96
f 53/89/37 52/88/37 64/102/37
f 51/94/97 72/273/97 58/103/97
f 62/75/2 55/92/2 132/105/2
f 1/80/39 65/98/39 64/102/39
f 63/85/40 64/102/40 57/107/40
f 47/109/41 54/135/41 61/110/41
f 3/112/42 56/93/42 55/92/42
f 60/113/43 61/274/43 56/114/43
f 2/116/44 57/275/44 58/117/44
f 59/119/41 58/276/41 72/120/41
f 65/98/3 1/80/3 78/122/3
f 55/92/20 65/98/20 142/123/20
f 40/69/45 32/68/45 33/124/45
f 110/126/2 33/124/2 32/68/2
f 35/64/17 112/54/17 143/127/17
f 146/129/46 67/277/46 66/130/46
f 70/132/5 68/134/5 6/12/5
f 9/4/4 71/140/4 70/132/4
f 69/133/8 74/31/8 8/6/8
f 68/134/7 69/133/7 7/27/7
f 48/121/47 72/120/47 54/135/47
f 68/134/3 73/138/3 75/136/3
f 70/132/98 71/140/98 77/137/98
f 69/133/99 75/136/99 76/139/99
f 74/31/2 76/139/2 77/137/2
f 119/208/17 120/203/17 123/142/17
f 120/203/17 124/143/17 123/142/17
f 124/143/100 125/278/100 122/141/100
f 125/278/101 121/279/101 122/141/101
f 88/144/2 89/158/2 86/145/2
f 93/147/3 98/157/3 96/148/3
f 93/150/50 91/160/50 90/151/50
f 83/153/2 82/162/2 81/154/2
f 94/156/3 99/187/3 98/157/3
f 89/158/2 90/280/2 87/159/2
f 91/160/51 92/281/51 82/161/51
f 87/159/2 90/280/2 82/162/2
f 89/163/52 88/282/52 94/164/52
f 82/166/53 92/283/53 95/167/53
f 84/155/2 81/154/2 88/144/2
f 95/169/54 94/284/54 88/170/54
f 153/172/52 85/146/52 86/145/52
f 92/174/3 97/180/3 100/175/3
f 98/177/55 99/285/55 104/178/55
f 91/149/3 96/148/3 97/180/3
f 95/181/3 100/286/3 99/182/3
f 105/186/3 102/189/3 101/188/3
f 101/188/3 103/184/3 105/186/3
f 103/184/54 101/188/54 96/148/54
f 105/186/50 104/185/50 99/187/50
f 101/188/56 102/189/56 97/180/56
f 102/189/57 105/186/57 100/175/57
f 108/193/59 106/197/59 115/55/59
f 116/192/61 107/191/61 117/195/61
f 145/198/63 143/287/63 112/199/63
f 108/201/63 117/195/63 107/191/63
f 107/191/65 118/190/65 112/199/65
f 120/203/66 119/208/66 139/106/66
f 121/205/67 79/214/67 140/206/67
f 119/208/68 123/142/68 78/122/68
f 120/209/102 80/288/102 137/210/102
f 123/142/70 122/141/70 140/212/70
f 121/205/103 125/289/103 136/213/103
f 131/217/20 127/218/20 130/223/20
f 127/218/20 126/219/20 130/223/20
f 130/223/20 129/215/20 131/217/20
f 129/215/104 128/290/104 151/216/104
f 127/218/73 133/236/73 132/105/73
f 141/220/74 134/291/74 128/221/74
f 126/219/75 132/105/75 142/123/75
f 138/224/105 133/292/105 127/225/105
f 130/223/77 142/123/77 141/227/77
f 128/221/106 134/291/106 135/228/106
f 141/227/79 142/123/79 78/122/79
f 134/230/80 141/293/80 140/231/80
f 138/233/81 131/252/81 124/234/81
f 139/106/82 132/105/82 133/236/82
f 133/237/83 138/294/83 137/238/83
f 135/240/84 134/295/84 79/241/84
f 151/243/81 135/296/81 136/244/81
f 110/126/85 109/58/85 117/200/85
f 146/129/86 144/131/86 143/247/86
f 83/153/51 147/251/51 149/249/51
f 86/145/50 87/159/50 149/249/50
f 85/146/54 153/172/54 148/250/54
f 84/155/53 148/250/53 147/251/53
f 131/252/87 151/243/87 125/245/87
f 154/253/3 152/256/3 147/251/3
f 149/249/107 152/256/107 156/254/107
f 155/255/108 154/253/108 148/250/108
f 156/254/2 155/255/2 153/172/2
f 110/194/90 113/56/90 36/49/90
f 1/80/17 62/75/17 139/106/17
