# Blender v2.93.0 OBJ File: 'Sketchfab_2015_09_29_19_40_53.blend.blend'
# www.blender.org
mtllib SpaceShip.mtl
o ship_Cube.001
v -0.781084 0.400000 1.000000
v -0.781084 0.400000 -0.599756
v -0.781084 -0.100000 1.000000
v -0.781084 -0.100000 -0.599756
v -0.781084 0.400000 0.000000
v -0.781084 -0.025102 0.000000
v -0.281084 0.400000 1.000000
v -0.281084 0.400000 -1.000000
v -0.281084 -0.100000 1.000000
v -0.281084 -0.100000 -1.000000
v -0.281084 0.579665 0.000000
v -0.281084 -0.154164 0.000000
v -0.173622 0.800000 -1.000000
v -0.281085 0.163507 -1.793829
v -0.281085 -0.131406 -1.622819
v -0.173622 0.399438 -1.930637
v -0.173452 0.090475 -2.378701
v -0.173452 -0.154688 -2.236540
v -0.281084 0.400000 0.000000
v -0.689468 0.568210 1.000000
v -0.689468 0.568210 0.134321
v -0.372700 0.568210 1.000000
v -0.372700 0.568210 0.134321
v -0.699567 -0.269996 1.000000
v -0.699568 -0.269996 0.134321
v -0.362601 -0.269996 1.000000
v -0.362601 -0.269996 0.134321
v -0.836008 0.455022 1.304698
v -0.836008 -0.154826 1.304698
v -0.226160 0.455022 1.304697
v -0.226160 -0.154826 1.304697
v -0.724264 0.660187 1.304698
v -0.337904 0.660187 1.304697
v -0.736582 -0.362169 1.304698
v -0.325586 -0.362169 1.304697
v -0.714914 0.333712 0.923826
v -0.714914 -0.033948 0.923826
v -0.347254 0.333712 0.923826
v -0.347254 -0.033948 0.923826
v -0.647547 0.457400 0.923826
v -0.414621 0.457400 0.923826
v -0.654973 -0.158949 0.923826
v -0.407195 -0.158949 0.923826
v -2.414106 -0.386047 0.597455
v -2.414106 -0.335763 0.597455
v -2.414106 -0.364944 0.272799
v -2.414106 -0.364944 1.138770
v -0.781084 -0.154164 0.000000
v -0.746796 0.462955 0.919498
v -0.735276 0.469326 0.206404
v -0.723757 0.505256 0.919498
v -1.568816 0.941218 1.493804
v -1.568816 0.941218 1.057065
v -1.556655 0.963546 1.493804
v -1.597595 -0.270105 0.298728
v -1.275713 -0.232472 1.331795
v -1.597595 -0.232472 -0.163479
v -1.597595 -0.180432 0.298728
v -0.692561 0.311476 -0.670618
v -0.692561 -0.011476 -0.670618
v -0.369608 0.311476 -0.929138
v -0.369608 -0.011476 -0.929138
v -0.692561 0.311476 -0.481168
v -0.692561 -0.011476 -0.481168
v -0.369608 0.311476 -0.739688
v -0.369608 -0.011476 -0.739688
v 0.781084 0.400000 1.000000
v 0.781084 0.400000 -0.599756
v 0.000000 0.400000 1.000000
v -0.000000 -0.131406 -1.622819
v 0.781084 -0.100000 1.000000
v 0.781084 -0.100000 -0.599756
v 0.000000 -0.100000 1.000000
v -0.000000 -0.100000 -1.000000
v 0.781084 0.400000 -0.000000
v 0.000000 0.579665 0.000000
v 0.781084 -0.025102 -0.000000
v 0.000000 -0.154164 0.000000
v 0.281084 0.400000 1.000000
v 0.281084 0.400000 -1.000000
v 0.281084 -0.100000 1.000000
v 0.281084 -0.100000 -1.000000
v 0.281084 0.579665 -0.000000
v 0.281084 -0.154164 -0.000000
v -0.000000 0.800000 -1.000000
v 0.173622 0.800000 -1.000000
v 0.281084 0.163507 -1.793829
v 0.281084 -0.131406 -1.622819
v -0.000000 0.399438 -1.930637
v 0.173622 0.399438 -1.930637
v -0.000000 -0.154688 -2.236540
v 0.173451 0.090475 -2.378701
v 0.173451 -0.154688 -2.236540
v -0.000000 0.090475 -2.378701
v 0.281084 0.400000 -0.000000
v 0.689468 0.568210 1.000000
v 0.689468 0.568210 0.134321
v 0.372700 0.568210 1.000000
v 0.372700 0.568210 0.134321
v 0.699568 -0.269996 1.000000
v 0.699568 -0.269996 0.134321
v 0.362601 -0.269996 1.000000
v 0.362601 -0.269996 0.134321
v 0.836008 0.455022 1.304697
v 0.836008 -0.154826 1.304697
v 0.226161 0.455022 1.304697
v 0.226161 -0.154826 1.304697
v 0.724265 0.660187 1.304697
v 0.337904 0.660187 1.304697
v 0.736583 -0.362169 1.304697
v 0.325586 -0.362169 1.304697
v 0.714914 0.333712 0.923826
v 0.714914 -0.033948 0.923826
v 0.347255 0.333712 0.923826
v 0.347255 -0.033948 0.923826
v 0.647547 0.457400 0.923826
v 0.414622 0.457400 0.923826
v 0.654973 -0.158949 0.923826
v 0.407195 -0.158949 0.923826
v 2.414106 -0.386047 0.597455
v 2.414106 -0.335763 0.597455
v 2.414106 -0.364944 0.272798
v 2.414106 -0.364944 1.138769
v 0.781084 -0.154164 -0.000000
v 0.746796 0.462955 0.919498
v 0.735276 0.469326 0.206404
v 0.723757 0.505256 0.919498
v 1.568817 0.941218 1.493804
v 1.568817 0.941218 1.057064
v 1.556655 0.963546 1.493804
v 1.597595 -0.270105 0.298727
v 1.275714 -0.232472 1.331794
v 1.597595 -0.232472 -0.163479
v 1.597595 -0.180432 0.298727
v 0.692561 0.311476 -0.670618
v 0.692561 -0.011476 -0.670618
v 0.369608 0.311476 -0.929138
v 0.369608 -0.011476 -0.929138
v 0.692561 0.311476 -0.481168
v 0.692561 -0.011476 -0.481168
v 0.369608 0.311476 -0.739688
v 0.369608 -0.011476 -0.739688
vt 0.705345 0.760948
vt 0.690522 0.739705
vt 0.704527 0.726566
vt 0.767722 0.221039
vt 0.815044 0.283276
vt 0.764755 0.286495
vt 0.409588 0.732986
vt 0.523655 0.654791
vt 0.525107 0.733502
vt 0.275665 0.479883
vt 0.463406 0.428123
vt 0.463573 0.479905
vt 0.303695 0.972630
vt 0.141493 0.897429
vt 0.307889 0.941974
vt 0.488799 0.972630
vt 0.702361 0.637050
vt 0.644307 0.426186
vt 0.645107 0.474575
vt 0.696123 0.859674
vt 0.557092 0.808864
vt 0.700752 0.823350
vt 0.679490 0.909457
vt 0.778029 0.958488
vt 0.682208 0.963324
vt 0.347250 0.572110
vt 0.459231 0.575931
vt 0.290589 0.637051
vt 0.310706 0.714783
vt 0.289117 0.731101
vt 0.522736 0.833340
vt 0.329139 0.827412
vt 0.494675 0.503653
vt 0.306527 0.868615
vt 0.158275 0.849037
vt 0.487243 0.927918
vt 0.177933 0.791053
vt 0.291587 0.778127
vt 0.159153 0.426717
vt 0.275908 0.427257
vt 0.044017 0.458661
vt 0.044167 0.426186
vt 0.066629 0.811834
vt 0.490923 0.885368
vt 0.561478 0.763182
vt 0.829425 0.201339
vt 0.821915 0.233638
vt 0.489513 0.557297
vt 0.643772 0.510628
vt 0.637213 0.575421
vt 0.817227 0.316012
vt 0.764173 0.322630
vt 0.632308 0.610617
vt 0.052358 0.861448
vt 0.131660 0.926287
vt 0.036263 0.803099
vt 0.021992 0.852714
vt 0.780846 0.460225
vt 0.831364 0.414296
vt 0.839747 0.451568
vt 0.859323 0.519907
vt 0.792951 0.524959
vt 0.817261 0.049455
vt 0.865056 0.101865
vt 0.804400 0.087914
vt 0.775787 0.183203
vt 0.772141 0.420336
vt 0.888631 0.289705
vt 0.892324 0.316952
vt 0.890566 0.241001
vt 0.912427 0.418608
vt 0.938288 0.463269
vt 0.945736 0.124401
vt 0.931572 0.150260
vt 0.907201 0.389595
vt 0.900172 0.216499
vt 0.058055 0.531686
vt 0.103171 0.531686
vt 0.114085 0.554447
vt 0.543628 0.179389
vt 0.539993 0.329785
vt 0.458936 0.179152
vt 0.696831 0.328623
vt 0.598682 0.328076
vt 0.195222 0.179691
vt 0.189562 0.027285
vt 0.248903 0.028081
vt 0.347590 0.026662
vt 0.384572 0.235003
vt 0.598666 0.337179
vt 0.570229 0.745616
vt 0.757682 0.684292
vt 0.792477 0.852725
vt 0.750409 0.685941
vt 0.974813 0.683297
vt 0.877495 0.828706
vt 0.879166 0.595452
vt 0.690626 0.748144
vt 0.488119 0.029331
vt 0.378222 0.028777
vt 0.670725 0.026819
vt 0.141481 0.331276
vt 0.110537 0.178123
vt 0.324029 0.328138
vt 0.692552 0.381300
vt 0.727048 0.440105
vt 0.692552 0.440105
vt 0.389471 0.655254
vt 0.311657 0.654036
vt 0.411061 0.638936
vt 0.388520 0.716001
vt 0.692111 0.547064
vt 0.727867 0.597677
vt 0.693371 0.597676
vt 0.692111 0.488260
vt 0.726607 0.547064
vt 0.726607 0.488260
vt 0.049140 0.757251
vt 0.124465 0.698447
vt 0.124465 0.757251
vt 0.862701 0.839435
vt 0.795441 0.848217
vt 0.690522 0.739705
vt 0.705345 0.760948
vt 0.704527 0.726566
vt 0.815044 0.283276
vt 0.767722 0.221039
vt 0.764755 0.286495
vt 0.523655 0.654791
vt 0.409588 0.732986
vt 0.525107 0.733502
vt 0.275665 0.479883
vt 0.463573 0.479905
vt 0.141493 0.897429
vt 0.307889 0.941974
vt 0.487243 0.927918
vt 0.645107 0.474575
vt 0.696123 0.859674
vt 0.557092 0.808864
vt 0.522736 0.833340
vt 0.679490 0.909457
vt 0.347250 0.572110
vt 0.459231 0.575931
vt 0.289117 0.731101
vt 0.311657 0.654036
vt 0.290589 0.637051
vt 0.494675 0.503653
vt 0.306527 0.868615
vt 0.177933 0.791053
vt 0.291587 0.778127
vt 0.044017 0.458661
vt 0.158910 0.479343
vt 0.066629 0.811834
vt 0.158275 0.849037
vt 0.490923 0.885368
vt 0.561478 0.763182
vt 0.829425 0.201339
vt 0.775787 0.183203
vt 0.643772 0.510628
vt 0.489513 0.557297
vt 0.637213 0.575421
vt 0.817227 0.316012
vt 0.764173 0.322630
vt 0.632308 0.610617
vt 0.052358 0.861448
vt 0.780846 0.460225
vt 0.831364 0.414296
vt 0.772141 0.420336
vt 0.859323 0.519907
vt 0.792951 0.524959
vt 0.865056 0.101865
vt 0.817261 0.049455
vt 0.804400 0.087914
vt 0.888631 0.289705
vt 0.890566 0.241001
vt 0.821915 0.233638
vt 0.912427 0.418608
vt 0.839747 0.451568
vt 0.938288 0.463269
vt 0.945736 0.124401
vt 0.883528 0.059471
vt 0.907201 0.389595
vt 0.931572 0.150260
vt 0.047140 0.621392
vt 0.059407 0.643914
vt 0.101819 0.643914
vt 0.539993 0.329785
vt 0.543628 0.179389
vt 0.458936 0.179152
vt 0.696831 0.328623
vt 0.731642 0.119827
vt 0.195222 0.179691
vt 0.189562 0.027285
vt 0.110537 0.178123
vt 0.347590 0.026662
vt 0.384572 0.235003
vt 0.598682 0.328076
vt 0.598666 0.337179
vt 0.570229 0.745616
vt 0.792477 0.852725
vt 0.757682 0.684292
vt 0.750409 0.685941
vt 0.877495 0.828706
vt 0.974813 0.683297
vt 0.879166 0.595452
vt 0.690626 0.748144
vt 0.488119 0.029331
vt 0.378222 0.028777
vt 0.670725 0.026819
vt 0.141481 0.331276
vt 0.031456 0.328920
vt 0.324029 0.328138
vt 0.727048 0.440105
vt 0.692552 0.381300
vt 0.692552 0.440105
vt 0.411061 0.638936
vt 0.389471 0.655254
vt 0.310706 0.714783
vt 0.727867 0.597677
vt 0.692111 0.547064
vt 0.693371 0.597676
vt 0.726607 0.547064
vt 0.692111 0.488260
vt 0.124465 0.698447
vt 0.049140 0.757251
vt 0.124465 0.757251
vt 0.862701 0.839435
vt 0.859822 0.589658
vt 0.795441 0.848217
vt 0.775311 0.904621
vt 0.158910 0.479343
vt 0.040911 0.890369
vt 0.883528 0.059471
vt 0.114085 0.621392
vt 0.047140 0.621392
vt 0.101819 0.643914
vt 0.059407 0.643914
vt 0.047140 0.554447
vt 0.731642 0.119827
vt 0.936571 0.881942
vt 0.031456 0.328920
vt 0.727048 0.381300
vt 0.049140 0.698447
vt 0.859822 0.589658
vt 0.702361 0.637050
vt 0.700752 0.823350
vt 0.775311 0.904621
vt 0.329139 0.827412
vt 0.892324 0.316952
vt 0.900172 0.216499
vt 0.114085 0.621392
vt 0.114085 0.554447
vt 0.103171 0.531686
vt 0.058055 0.531686
vt 0.047140 0.554447
vt 0.248903 0.028081
vt 0.936571 0.881942
vt 0.727048 0.381300
vt 0.388520 0.716001
vt 0.726607 0.488260
vt 0.049140 0.698447
vn -0.8782 0.4783 0.0000
vn 0.0000 -0.9572 -0.2895
vn -1.0000 0.0000 0.0000
vn -0.0000 -0.9985 -0.0541
vn 0.0000 0.9185 -0.3954
vn 0.0000 0.9766 0.2152
vn 0.0000 -0.9985 0.0541
vn 0.8782 0.4783 -0.0000
vn 0.0000 0.0000 1.0000
vn 0.0000 -0.9959 -0.0899
vn -0.6249 0.0000 -0.7807
vn 0.0000 1.0000 0.0000
vn 0.8334 -0.5518 0.0299
vn -0.9268 0.3600 -0.1072
vn -0.9647 0.2592 -0.0466
vn 0.0000 -0.9987 0.0504
vn 0.0000 -0.9993 0.0379
vn -0.9809 -0.0976 -0.1683
vn 0.0000 0.9842 0.1768
vn -0.0000 0.6240 -0.7814
vn 0.8767 -0.4204 -0.2337
vn 0.0000 -1.0000 0.0000
vn -0.0000 -0.7573 -0.6531
vn -0.8767 -0.4204 -0.2337
vn -0.9017 -0.4324 0.0000
vn -0.9300 0.3025 -0.2089
vn 0.0000 0.8233 -0.5677
vn 0.0000 -0.5016 -0.8651
vn -0.8530 0.4646 -0.2377
vn 0.0000 0.9573 -0.2890
vn 0.8530 0.4646 -0.2377
vn 0.9841 0.0000 -0.1774
vn -0.9841 0.0000 -0.1774
vn 0.8302 0.3981 0.3903
vn -0.8302 0.3981 0.3903
vn 0.0000 0.8823 0.4707
vn 0.8063 -0.4392 0.3962
vn 0.0000 -0.8827 0.4700
vn -0.8063 -0.4392 0.3962
vn 0.9530 0.0000 0.3030
vn -0.9530 0.0000 0.3030
vn 0.1175 -0.9898 -0.0806
vn 0.1543 -0.9873 0.0385
vn -0.2169 0.9723 -0.0874
vn -0.1302 0.9874 0.0903
vn -0.8343 0.5513 0.0000
vn 0.4541 -0.2473 0.8559
vn -0.5048 -0.8631 -0.0159
vn -0.8927 0.4482 0.0476
vn 0.1128 -0.9896 -0.0894
vn 0.1595 -0.9858 0.0534
vn -0.2241 0.9684 -0.1090
vn -0.1889 0.9760 0.1080
vn 1.0000 0.0000 -0.0000
vn 0.4502 0.8910 -0.0581
vn 0.6249 0.0000 -0.7807
vn -0.8334 -0.5518 0.0299
vn 0.9598 0.2579 -0.1110
vn 0.9647 0.2592 -0.0466
vn 0.9809 -0.0976 -0.1683
vn 0.9300 0.3025 -0.2089
vn -0.1175 -0.9898 -0.0806
vn -0.1156 -0.9933 0.0002
vn 0.2158 0.9703 -0.1092
vn 0.1302 0.9874 0.0903
vn 0.8343 0.5513 -0.0000
vn -0.4541 -0.2473 0.8559
vn 0.5048 -0.8631 -0.0159
vn 0.8927 0.4482 0.0476
vn -0.1128 -0.9896 -0.0894
vn -0.1595 -0.9858 0.0534
vn 0.2216 0.9676 -0.1208
vn 0.1603 0.9843 0.0737
vn -0.4511 0.8909 -0.0522
vn -0.0433 -0.9976 -0.0540
vn 0.9017 -0.4324 -0.0000
vn -0.9598 0.2579 -0.1110
vn 0.1172 -0.9910 -0.0644
vn 0.1156 -0.9933 0.0002
vn -0.2158 0.9703 -0.1092
vn -0.1679 0.9844 0.0531
vn -0.8835 0.4683 -0.0101
vn -0.5029 -0.8643 0.0000
vn -0.9091 0.4165 -0.0063
vn 0.1111 -0.9905 -0.0806
vn 0.2348 -0.9713 -0.0378
vn -0.2216 0.9676 -0.1208
vn -0.1603 0.9843 0.0737
vn 0.4511 0.8909 -0.0522
vn 0.0433 -0.9976 -0.0540
vn 0.9268 0.3600 -0.1072
vn -0.1172 -0.9910 -0.0644
vn -0.1543 -0.9873 0.0385
vn 0.2169 0.9723 -0.0874
vn 0.1679 0.9844 0.0531
vn 0.8835 0.4683 -0.0101
vn 0.5029 -0.8643 0.0000
vn 0.9091 0.4165 -0.0063
vn -0.1111 -0.9905 -0.0806
vn -0.2348 -0.9713 -0.0378
vn 0.2241 0.9684 -0.1090
vn 0.1889 0.9760 0.1080
vn -0.4502 0.8910 -0.0581
usemtl Material
s off
f 20/1/1 49/2/1 1/3/1
f 26/4/2 34/5/2 24/6/2
f 2/7/3 6/8/3 5/9/3
f 10/10/4 78/11/4 12/12/4
f 85/13/5 16/14/5 13/15/5
f 13/15/6 76/16/6 85/13/6
f 1/3/3 6/8/3 3/17/3
f 12/12/7 73/18/7 9/19/7
f 7/20/8 23/21/8 22/22/8
f 7/23/9 73/24/9 69/25/9
f 4/26/10 12/12/10 48/27/10
f 10/28/11 61/29/11 8/30/11
f 2/7/12 19/31/12 8/32/12
f 9/19/13 27/33/13 12/12/13
f 8/34/14 16/14/14 14/35/14
f 8/34/15 11/36/15 13/15/15
f 8/34/3 15/37/3 10/38/3
f 10/10/16 70/39/16 74/40/16
f 70/39/17 18/41/17 91/42/17
f 14/35/18 18/43/18 15/37/18
f 69/25/19 11/36/19 7/23/19
f 19/44/3 7/23/3 11/36/3
f 5/9/20 23/21/20 19/31/20
f 20/1/12 23/21/12 21/45/12
f 26/4/21 31/46/21 35/47/21
f 25/48/22 26/49/22 24/50/22
f 12/12/23 25/48/23 48/27/23
f 24/6/24 29/51/24 3/52/24
f 3/53/25 25/48/25 24/50/25
f 14/35/26 16/14/26 17/54/26
f 89/55/27 17/54/27 16/14/27
f 91/56/28 17/54/28 94/57/28
f 20/58/29 28/59/29 32/60/29
f 20/58/30 33/61/30 22/62/30
f 22/63/31 30/64/31 7/65/31
f 7/65/32 31/46/32 9/66/32
f 1/67/33 29/51/33 28/59/33
f 29/51/34 42/68/34 37/69/34
f 31/46/35 43/70/35 35/47/35
f 35/47/36 42/68/36 34/5/36
f 28/59/37 40/71/37 32/60/37
f 32/60/38 41/72/38 33/61/38
f 30/64/39 41/73/39 38/74/39
f 29/51/40 36/75/40 28/59/40
f 31/46/41 38/74/41 39/76/41
f 42/77/9 43/78/9 39/79/9
f 55/80/42 46/81/42 57/82/42
f 55/80/43 47/83/43 44/84/43
f 58/85/44 46/86/44 45/87/44
f 58/85/45 47/88/45 56/89/45
f 44/84/3 45/90/3 46/81/3
f 1/3/46 50/91/46 5/9/46
f 51/92/47 52/93/47 49/94/47
f 49/95/48 53/96/48 50/97/48
f 21/45/49 5/9/49 50/91/49
f 21/45/1 51/98/1 20/1/1
f 48/99/50 57/82/50 4/100/50
f 3/101/51 55/80/51 48/99/51
f 6/102/52 57/103/52 58/85/52
f 3/104/53 58/85/53 56/89/53
f 62/105/3 65/106/3 61/107/3
f 10/28/11 60/108/11 62/109/11
f 2/7/11 60/108/11 4/110/11
f 8/30/11 59/111/11 2/7/11
f 60/112/12 66/113/12 62/114/12
f 59/115/54 64/116/54 60/112/54
f 59/115/22 65/106/22 63/117/22
f 65/118/11 64/119/11 63/120/11
f 51/92/55 53/121/55 54/122/55
f 52/93/1 54/122/1 53/121/1
f 125/123/8 96/124/8 67/125/8
f 110/126/2 102/127/2 100/128/2
f 77/129/54 68/130/54 75/131/54
f 78/11/4 82/132/4 84/133/4
f 90/134/5 85/13/5 86/135/5
f 86/135/6 76/16/6 83/136/6
f 67/125/54 77/129/54 75/131/54
f 73/18/7 84/133/7 81/137/7
f 79/138/1 99/139/1 95/140/1
f 73/24/9 79/141/9 69/25/9
f 84/133/10 72/142/10 124/143/10
f 80/144/56 138/145/56 82/146/56
f 68/130/12 95/140/12 75/131/12
f 103/147/57 81/137/57 84/133/57
f 80/148/58 90/134/58 86/135/58
f 83/136/59 80/148/59 86/135/59
f 88/149/54 80/148/54 82/150/54
f 70/39/16 82/132/16 74/40/16
f 70/39/17 93/151/17 88/152/17
f 93/153/60 87/154/60 88/149/60
f 83/136/19 69/25/19 79/141/19
f 95/155/54 83/136/54 79/141/54
f 99/139/20 75/131/20 95/140/20
f 99/139/12 96/124/12 97/156/12
f 102/127/24 107/157/24 81/158/24
f 102/159/22 101/160/22 100/161/22
f 101/160/23 84/133/23 124/143/23
f 105/162/21 100/128/21 71/163/21
f 71/164/13 101/160/13 124/143/13
f 87/154/61 92/165/61 90/134/61
f 92/165/27 89/55/27 90/134/27
f 92/165/28 91/56/28 94/57/28
f 96/166/31 104/167/31 67/168/31
f 109/169/30 96/166/30 98/170/30
f 106/171/29 98/172/29 79/173/29
f 107/157/33 79/173/33 81/158/33
f 67/168/32 105/162/32 71/163/32
f 105/162/35 118/174/35 110/126/35
f 119/175/34 107/157/34 111/176/34
f 118/174/36 111/176/36 110/126/36
f 116/177/39 104/167/39 108/178/39
f 117/179/38 108/178/38 109/169/38
f 106/171/37 117/180/37 109/181/37
f 112/182/41 105/162/41 104/167/41
f 107/157/40 114/183/40 106/171/40
f 112/184/9 116/185/9 117/186/9
f 122/187/62 131/188/62 133/189/62
f 131/188/63 123/190/63 132/191/63
f 134/192/64 122/193/64 133/194/64
f 123/195/65 134/192/65 132/196/65
f 120/197/54 121/198/54 123/190/54
f 126/199/66 67/125/66 75/131/66
f 128/200/67 127/201/67 125/202/67
f 129/203/68 125/204/68 126/205/68
f 97/156/69 126/199/69 75/131/69
f 127/206/8 97/156/8 96/124/8
f 133/189/70 124/207/70 72/208/70
f 131/188/71 71/209/71 124/207/71
f 77/210/72 133/194/72 72/211/72
f 71/212/73 134/192/73 77/210/73
f 141/213/54 138/214/54 137/215/54
f 138/145/56 72/216/56 82/146/56
f 136/217/56 68/130/56 72/216/56
f 68/130/56 137/218/56 80/144/56
f 142/219/12 136/220/12 138/221/12
f 140/222/3 135/223/3 136/220/3
f 135/223/22 141/213/22 137/215/22
f 140/224/56 141/225/56 139/226/56
f 127/201/74 129/227/74 126/228/74
f 128/200/8 129/227/8 130/229/8
f 20/1/1 51/98/1 49/2/1
f 26/4/2 35/47/2 34/5/2
f 2/7/3 4/110/3 6/8/3
f 10/10/4 74/40/4 78/11/4
f 85/13/5 89/55/5 16/14/5
f 13/15/6 11/36/6 76/16/6
f 1/3/3 5/9/3 6/8/3
f 12/12/7 78/11/7 73/18/7
f 7/20/8 19/31/8 23/21/8
f 7/23/9 9/230/9 73/24/9
f 4/26/75 10/10/75 12/12/75
f 10/28/11 62/109/11 61/29/11
f 2/7/12 5/9/12 19/31/12
f 9/19/76 26/49/76 27/33/76
f 8/34/77 13/15/77 16/14/77
f 8/34/3 19/44/3 11/36/3
f 8/34/3 14/35/3 15/37/3
f 10/10/16 15/231/16 70/39/16
f 70/39/17 15/231/17 18/41/17
f 14/35/18 17/54/18 18/43/18
f 69/25/19 76/16/19 11/36/19
f 5/9/20 21/45/20 23/21/20
f 20/1/12 22/22/12 23/21/12
f 26/4/21 9/66/21 31/46/21
f 25/48/22 27/33/22 26/49/22
f 12/12/23 27/33/23 25/48/23
f 24/6/24 34/5/24 29/51/24
f 3/53/57 48/27/57 25/48/57
f 89/55/27 94/232/27 17/54/27
f 91/56/28 18/43/28 17/54/28
f 20/58/29 1/67/29 28/59/29
f 20/58/30 32/60/30 33/61/30
f 22/63/31 33/233/31 30/64/31
f 7/65/32 30/64/32 31/46/32
f 1/67/33 3/52/33 29/51/33
f 29/51/34 34/5/34 42/68/34
f 31/46/35 39/76/35 43/70/35
f 35/47/36 43/70/36 42/68/36
f 28/59/37 36/75/37 40/71/37
f 32/60/38 40/71/38 41/72/38
f 30/64/39 33/233/39 41/73/39
f 29/51/40 37/69/40 36/75/40
f 31/46/41 30/64/41 38/74/41
f 39/79/9 38/234/9 36/235/9
f 38/234/9 41/236/9 36/235/9
f 41/236/9 40/237/9 36/235/9
f 36/235/9 37/238/9 39/79/9
f 37/238/9 42/77/9 39/79/9
f 55/80/78 44/84/78 46/81/78
f 55/80/79 56/239/79 47/83/79
f 58/85/80 57/103/80 46/86/80
f 58/85/81 45/87/81 47/88/81
f 44/84/3 47/83/3 45/90/3
f 1/3/82 49/2/82 50/91/82
f 51/92/47 54/122/47 52/93/47
f 49/95/83 52/240/83 53/96/83
f 21/45/84 50/91/84 51/98/84
f 48/99/85 55/80/85 57/82/85
f 3/101/86 56/239/86 55/80/86
f 6/102/87 4/241/87 57/103/87
f 3/104/88 6/102/88 58/85/88
f 62/105/3 66/242/3 65/106/3
f 10/28/11 4/110/11 60/108/11
f 2/7/11 59/111/11 60/108/11
f 8/30/11 61/29/11 59/111/11
f 60/112/12 64/116/12 66/113/12
f 59/115/54 63/117/54 64/116/54
f 59/115/22 61/107/22 65/106/22
f 65/118/11 66/243/11 64/119/11
f 51/92/89 50/244/89 53/121/89
f 125/123/8 127/206/8 96/124/8
f 110/126/2 111/176/2 102/127/2
f 77/129/54 72/216/54 68/130/54
f 78/11/4 74/40/4 82/132/4
f 90/134/5 89/55/5 85/13/5
f 86/135/6 85/13/6 76/16/6
f 67/125/54 71/245/54 77/129/54
f 73/18/7 78/11/7 84/133/7
f 79/138/1 98/246/1 99/139/1
f 73/24/9 81/247/9 79/141/9
f 84/133/90 82/132/90 72/142/90
f 80/144/56 137/218/56 138/145/56
f 68/130/12 80/248/12 95/140/12
f 103/147/25 102/159/25 81/137/25
f 80/148/91 87/154/91 90/134/91
f 83/136/54 95/155/54 80/148/54
f 88/149/54 87/154/54 80/148/54
f 70/39/16 88/152/16 82/132/16
f 70/39/17 91/42/17 93/151/17
f 93/153/60 92/165/60 87/154/60
f 83/136/19 76/16/19 69/25/19
f 99/139/20 97/156/20 75/131/20
f 99/139/12 98/246/12 96/124/12
f 102/127/24 111/176/24 107/157/24
f 102/159/22 103/147/22 101/160/22
f 101/160/23 103/147/23 84/133/23
f 105/162/21 110/126/21 100/128/21
f 71/164/76 100/161/76 101/160/76
f 92/165/27 94/232/27 89/55/27
f 92/165/28 93/153/28 91/56/28
f 96/166/31 108/178/31 104/167/31
f 109/169/30 108/178/30 96/166/30
f 106/171/29 109/181/29 98/172/29
f 107/157/33 106/171/33 79/173/33
f 67/168/32 104/167/32 105/162/32
f 105/162/35 113/249/35 118/174/35
f 119/175/34 115/250/34 107/157/34
f 118/174/36 119/175/36 111/176/36
f 116/177/39 112/182/39 104/167/39
f 117/179/38 116/177/38 108/178/38
f 106/171/37 114/183/37 117/180/37
f 112/182/41 113/249/41 105/162/41
f 107/157/40 115/250/40 114/183/40
f 117/186/9 114/251/9 112/184/9
f 114/251/9 115/252/9 112/184/9
f 115/252/9 119/253/9 118/254/9
f 118/254/9 113/255/9 115/252/9
f 113/255/9 112/184/9 115/252/9
f 122/187/92 120/197/92 131/188/92
f 131/188/93 120/197/93 123/190/93
f 134/192/94 121/256/94 122/193/94
f 123/195/95 121/256/95 134/192/95
f 120/197/54 122/187/54 121/198/54
f 126/199/96 125/123/96 67/125/96
f 128/200/67 130/229/67 127/201/67
f 129/203/97 128/257/97 125/204/97
f 127/206/98 126/199/98 97/156/98
f 133/189/99 131/188/99 124/207/99
f 131/188/100 132/191/100 71/209/100
f 77/210/101 134/192/101 133/194/101
f 71/212/102 132/196/102 134/192/102
f 141/213/54 142/258/54 138/214/54
f 138/145/56 136/217/56 72/216/56
f 136/217/56 135/259/56 68/130/56
f 68/130/56 135/259/56 137/218/56
f 142/219/12 140/222/12 136/220/12
f 140/222/3 139/260/3 135/223/3
f 135/223/22 139/260/22 141/213/22
f 140/224/56 142/261/56 141/225/56
f 127/201/103 130/229/103 129/227/103
