# Blender v2.93.0 OBJ File: 'Bullet.blend'
# www.blender.org
o Roundcube
v 0.028868 -0.128868 -0.028868
v 0.014434 -0.133850 -0.033850
v 0.000000 -0.135355 -0.035355
v -0.014434 -0.133850 -0.033850
v 0.033850 -0.114434 -0.033850
v 0.016925 -0.116925 -0.043899
v 0.000000 -0.117678 -0.046771
v -0.016925 -0.116925 -0.043899
v 0.035355 -0.100000 -0.035355
v 0.035355 0.100000 -0.035355
v 0.017678 -0.100000 -0.046771
v 0.017678 0.100000 -0.046771
v 0.000000 -0.100000 -0.050000
v 0.000000 0.100000 -0.050000
v -0.017678 -0.100000 -0.046771
v -0.017678 0.100000 -0.046771
v 0.033850 0.114434 -0.033850
v 0.016925 0.116925 -0.043899
v 0.000000 0.117678 -0.046771
v -0.016925 0.116925 -0.043899
v -0.028868 -0.128868 -0.028868
v -0.033850 -0.133850 -0.014434
v -0.035355 -0.135355 0.000000
v -0.033850 -0.133850 0.014434
v -0.033850 -0.114434 -0.033850
v -0.043899 -0.116925 -0.016925
v -0.046771 -0.117678 0.000000
v -0.043899 -0.116925 0.016925
v -0.035355 -0.100000 -0.035355
v -0.035355 0.100000 -0.035355
v -0.046771 -0.100000 -0.017678
v -0.046771 0.100000 -0.017678
v -0.050000 -0.100000 0.000000
v -0.050000 0.100000 0.000000
v -0.046771 -0.100000 0.017678
v -0.046771 0.100000 0.017678
v -0.033850 0.114434 -0.033850
v -0.043899 0.116925 -0.016925
v -0.046771 0.117678 0.000000
v -0.043899 0.116925 0.016925
v -0.028868 -0.128868 0.028868
v -0.014434 -0.133850 0.033850
v 0.000000 -0.135355 0.035355
v 0.014434 -0.133850 0.033850
v -0.033850 -0.114434 0.033850
v -0.016925 -0.116925 0.043899
v 0.000000 -0.117678 0.046771
v 0.016925 -0.116925 0.043899
v -0.035355 -0.100000 0.035355
v -0.035355 0.100000 0.035355
v -0.017678 -0.100000 0.046771
v -0.017678 0.100000 0.046771
v 0.000000 -0.100000 0.050000
v 0.000000 0.100000 0.050000
v 0.017678 -0.100000 0.046771
v 0.017678 0.100000 0.046771
v -0.033850 0.114434 0.033850
v -0.016925 0.116925 0.043899
v 0.000000 0.117678 0.046771
v 0.016925 0.116925 0.043899
v 0.028868 -0.128868 0.028868
v 0.033850 -0.133850 0.014434
v 0.035355 -0.135355 0.000000
v 0.033850 -0.133850 -0.014434
v 0.033850 -0.114434 0.033850
v 0.043899 -0.116925 0.016925
v 0.046771 -0.117678 0.000000
v 0.043899 -0.116925 -0.016925
v 0.035355 -0.100000 0.035355
v 0.035355 0.100000 0.035355
v 0.046771 -0.100000 0.017678
v 0.046771 0.100000 0.017678
v 0.050000 -0.100000 0.000000
v 0.050000 0.100000 0.000000
v 0.046771 -0.100000 -0.017678
v 0.046771 0.100000 -0.017678
v 0.033850 0.114434 0.033850
v 0.043899 0.116925 0.016925
v 0.046771 0.117678 0.000000
v 0.043899 0.116925 -0.016925
v 0.016925 -0.143899 0.016925
v 0.000000 -0.146771 0.017678
v -0.016925 -0.143899 0.016925
v 0.017678 -0.146771 0.000000
v 0.000000 -0.150000 0.000000
v -0.017678 -0.146771 0.000000
v 0.016925 -0.143899 -0.016925
v 0.000000 -0.146771 -0.017678
v -0.016925 -0.143899 -0.016925
v 0.028868 0.128868 -0.028868
v 0.014434 0.133850 -0.033850
v 0.000000 0.135355 -0.035355
v -0.014434 0.133850 -0.033850
v -0.028868 0.128868 -0.028868
v 0.033850 0.133850 -0.014434
v 0.016925 0.143899 -0.016925
v 0.000000 0.146771 -0.017678
v -0.016925 0.143899 -0.016925
v -0.033850 0.133850 -0.014434
v 0.035355 0.135355 0.000000
v 0.017678 0.146771 0.000000
v 0.000000 0.150000 0.000000
v -0.017678 0.146771 0.000000
v -0.035355 0.135355 0.000000
v 0.033850 0.133850 0.014434
v 0.016925 0.143899 0.016925
v 0.000000 0.146771 0.017678
v -0.016925 0.143899 0.016925
v -0.033850 0.133850 0.014434
v 0.028868 0.128868 0.028868
v 0.014434 0.133850 0.033850
v 0.000000 0.135355 0.035355
v -0.014434 0.133850 0.033850
v -0.028868 0.128868 0.028868
vt 0.000000 0.000000
vt 0.000000 0.000000
vt 0.000000 0.000000
vt 0.000000 0.000000
vt 0.000000 0.000000
vt 0.000000 0.000000
vt 0.000000 0.000000
vt 0.000000 0.000000
vt 0.000000 0.000000
vt 0.000000 0.000000
vt 0.000000 0.000000
vt 0.000000 0.000000
vt 0.000000 0.000000
vt 0.000000 0.000000
vt 0.000000 0.000000
vt 0.000000 0.000000
vt 0.000000 0.000000
vt 0.000000 0.000000
vt 0.000000 0.000000
vt 0.000000 0.000000
vt 0.000000 0.000000
vt 0.000000 0.000000
vt 0.000000 0.000000
vt 0.000000 0.000000
vt 0.000000 0.000000
vt 0.000000 0.000000
vt 0.000000 0.000000
vt 0.000000 0.000000
vt 0.000000 0.000000
vt 0.000000 0.000000
vt 0.000000 0.000000
vt 0.000000 0.000000
vt 0.000000 0.000000
vt 0.000000 0.000000
vt 0.000000 0.000000
vt 0.000000 0.000000
vt 0.000000 0.000000
vt 0.000000 0.000000
vt 0.114976 0.065608
vt 0.036000 0.115616
vt 0.044280 0.054063
vt 0.000000 0.000000
vt 0.000000 0.000000
vt 0.000000 0.000000
vt 0.000000 0.000000
vt 0.112636 0.118356
vt 0.000000 0.854015
vt 0.000000 0.000000
vt 0.000000 0.000000
vt 0.000000 0.000000
vt 0.073780 0.910586
vt 0.002187 0.917437
vt 0.000000 0.000000
vt 0.000000 0.000000
vt 0.000000 0.000000
vt 0.070327 0.965670
vt 0.017832 0.983186
vt 0.116720 0.014113
vt 0.185390 0.061234
vt 0.464112 0.075881
vt 0.490494 0.165575
vt 0.437131 0.139596
vt 0.562061 0.111342
vt 0.511201 0.093570
vt 0.617278 0.129211
vt 0.551987 0.181177
vt 0.188199 0.123351
vt 0.241646 0.128731
vt 0.481845 0.217458
vt 0.623667 0.183460
vt 0.546583 0.231236
vt 0.076636 0.856755
vt 0.152198 0.861750
vt 0.437805 0.714645
vt 0.623379 0.224890
vt 0.502543 0.728422
vt 0.205646 0.867130
vt 0.143297 0.924608
vt 0.228937 0.935202
vt 0.193740 0.932548
vt 0.573270 0.752409
vt 0.500493 0.762512
vt 0.888238 0.126356
vt 0.822144 0.066569
vt 0.879687 0.065717
vt 0.821548 0.171859
vt 0.825013 0.117957
vt 0.878988 0.189180
vt 0.810765 0.228666
vt 0.683240 0.148007
vt 0.359497 0.993902
vt 0.307134 0.938036
vt 0.369588 0.934302
vt 0.000000 0.000000
vt 0.000000 0.000000
vt 0.000000 0.000000
vt 0.000000 0.000000
vt 0.431426 0.922047
vt 0.372622 0.872616
vt 0.437131 0.869159
vt 0.307411 0.873679
vt 0.244188 0.934531
vt 0.000000 0.000000
vt 0.437131 0.130363
vt 0.372622 0.133820
vt 0.241647 0.872855
vt 0.307411 0.134883
vt 0.000000 0.000000
vt 0.431426 0.076615
vt 0.369588 0.070464
vt 0.244188 0.070693
vt 0.307134 0.068638
vt 0.000000 0.000000
vt 0.412540 0.021874
vt 0.359497 0.005022
vt 0.252556 0.005218
vt 0.306155 0.000000
vt 0.000000 0.000000
vt 0.597657 0.047819
vt 0.656542 0.087465
vt 0.539753 0.021738
vt 0.000000 0.000000
vt 0.000000 0.000000
vt 0.625772 0.000000
vt 0.683240 0.050093
vt 0.000000 0.000000
vt 0.000000 0.000000
vt 0.000000 0.000000
vt 0.000000 0.000000
vt 0.000000 0.000000
vt 0.000000 0.000000
vt 0.000000 0.000000
vt 0.000000 0.000000
vt 0.000000 0.000000
vt 0.000000 0.000000
vt 0.000000 0.000000
vt 0.000000 0.000000
vt 0.000000 0.000000
vt 0.000000 0.000000
vt 0.000000 0.000000
vt 0.687227 0.183133
vt 0.754126 0.246926
vt 0.702244 0.254647
vt 0.683240 0.116666
vt 0.749534 0.178455
vt 0.750233 0.054992
vt 0.748611 0.114788
vt 0.000000 0.000000
vt 0.811957 0.018086
vt 0.000000 0.000000
vt 0.000000 0.000000
vt 0.167595 0.000000
vt 0.236105 0.063618
vt 0.579339 0.722077
vt 0.241646 0.872815
vt 0.119408 0.988348
vt 0.847311 0.254647
vt 0.306155 1.000000
vt 0.241647 0.134059
vt 0.482801 0.006238
vt 0.687957 0.054180
vt 0.755524 0.000000
vn 0.5065 -0.4324 -0.7460
vn 0.1653 -0.5214 -0.8372
vn -0.1427 -0.5369 -0.8315
vn -0.4324 -0.5065 -0.7460
vn 0.5369 -0.1427 -0.8315
vn 0.1770 -0.1723 -0.9690
vn -0.1723 -0.1770 -0.9690
vn -0.5214 -0.1653 -0.8372
vn 0.5425 0.0000 -0.8401
vn 0.1797 0.0000 -0.9837
vn -0.1797 0.0000 -0.9837
vn -0.5425 0.0000 -0.8401
vn 0.5369 0.1427 -0.8315
vn 0.1770 0.1723 -0.9690
vn -0.1723 0.1770 -0.9690
vn -0.5214 0.1653 -0.8372
vn 0.5065 0.4324 -0.7460
vn 0.1653 0.5214 -0.8372
vn -0.1427 0.5369 -0.8315
vn -0.4324 0.5065 -0.7460
vn -0.7460 -0.4324 -0.5065
vn -0.8372 -0.5214 -0.1653
vn -0.8315 -0.5369 0.1427
vn -0.7460 -0.5065 0.4324
vn -0.8315 -0.1427 -0.5369
vn -0.9690 -0.1723 -0.1770
vn -0.9690 -0.1770 0.1723
vn -0.8372 -0.1653 0.5214
vn -0.8401 0.0000 -0.5425
vn -0.9837 0.0000 -0.1797
vn -0.9837 0.0000 0.1797
vn -0.8401 0.0000 0.5425
vn -0.8315 0.1427 -0.5369
vn -0.9690 0.1723 -0.1770
vn -0.9690 0.1770 0.1723
vn -0.8372 0.1653 0.5214
vn -0.7460 0.4324 -0.5065
vn -0.8372 0.5214 -0.1653
vn -0.8315 0.5369 0.1427
vn -0.7460 0.5065 0.4324
vn -0.5065 -0.4324 0.7460
vn -0.1653 -0.5214 0.8372
vn 0.1427 -0.5369 0.8315
vn 0.4324 -0.5065 0.7460
vn -0.5369 -0.1427 0.8315
vn -0.1770 -0.1723 0.9690
vn 0.1723 -0.1770 0.9690
vn 0.5214 -0.1653 0.8372
vn -0.5425 0.0000 0.8401
vn -0.1797 0.0000 0.9837
vn 0.1797 0.0000 0.9837
vn 0.5425 0.0000 0.8401
vn -0.5369 0.1427 0.8315
vn -0.1770 0.1723 0.9690
vn 0.1723 0.1770 0.9690
vn 0.5214 0.1653 0.8372
vn -0.5065 0.4324 0.7460
vn -0.1653 0.5214 0.8372
vn 0.1427 0.5369 0.8315
vn 0.4324 0.5065 0.7460
vn 0.7460 -0.4324 0.5065
vn 0.8372 -0.5214 0.1653
vn 0.8315 -0.5369 -0.1427
vn 0.7460 -0.5065 -0.4324
vn 0.8315 -0.1427 0.5369
vn 0.9690 -0.1723 0.1770
vn 0.9690 -0.1770 -0.1723
vn 0.8372 -0.1653 -0.5214
vn 0.8401 0.0000 0.5425
vn 0.9837 0.0000 0.1797
vn 0.9837 0.0000 -0.1797
vn 0.8401 0.0000 -0.5425
vn 0.8315 0.1427 0.5369
vn 0.9690 0.1723 0.1770
vn 0.9690 0.1770 -0.1723
vn 0.8372 0.1653 -0.5214
vn 0.7460 0.4324 0.5065
vn 0.8372 0.5214 0.1653
vn 0.8315 0.5369 -0.1427
vn 0.7460 0.5065 -0.4324
vn 0.5065 -0.7460 0.4324
vn 0.1653 -0.8372 0.5214
vn -0.1427 -0.8315 0.5369
vn -0.4324 -0.7460 0.5065
vn 0.5369 -0.8315 0.1427
vn 0.1770 -0.9690 0.1723
vn -0.1723 -0.9690 0.1770
vn -0.5214 -0.8372 0.1653
vn 0.5369 -0.8315 -0.1427
vn 0.1770 -0.9690 -0.1723
vn -0.1723 -0.9690 -0.1770
vn -0.5214 -0.8372 -0.1653
vn 0.5065 -0.7460 -0.4324
vn 0.1653 -0.8372 -0.5214
vn -0.1427 -0.8315 -0.5369
vn -0.4324 -0.7460 -0.5065
vn 0.5065 0.7460 -0.4324
vn 0.1653 0.8372 -0.5214
vn -0.1427 0.8315 -0.5369
vn -0.4324 0.7460 -0.5065
vn 0.5369 0.8315 -0.1427
vn 0.1770 0.9690 -0.1723
vn -0.1723 0.9690 -0.1770
vn -0.5214 0.8372 -0.1653
vn 0.5369 0.8315 0.1427
vn 0.1770 0.9690 0.1723
vn -0.1723 0.9690 0.1770
vn -0.5214 0.8372 0.1653
vn 0.5065 0.7460 0.4324
vn 0.1653 0.8372 0.5214
vn -0.1427 0.8315 0.5369
vn -0.4324 0.7460 0.5065
vn 0.4324 -0.5065 -0.7460
vn 0.1427 -0.5369 -0.8315
vn -0.1653 -0.5214 -0.8372
vn -0.5065 -0.4324 -0.7460
vn 0.5214 -0.1653 -0.8372
vn 0.1723 -0.1770 -0.9690
vn -0.1770 -0.1723 -0.9690
vn -0.5369 -0.1427 -0.8315
vn 0.5214 0.1653 -0.8372
vn 0.1723 0.1770 -0.9690
vn -0.1770 0.1723 -0.9690
vn -0.5369 0.1427 -0.8315
vn 0.4324 0.5065 -0.7460
vn 0.1427 0.5369 -0.8315
vn -0.1653 0.5214 -0.8372
vn -0.5065 0.4324 -0.7460
vn -0.7460 -0.5065 -0.4324
vn -0.8315 -0.5369 -0.1427
vn -0.8372 -0.5214 0.1653
vn -0.7460 -0.4324 0.5065
vn -0.8372 -0.1653 -0.5214
vn -0.9690 -0.1770 -0.1723
vn -0.9690 -0.1723 0.1770
vn -0.8315 -0.1427 0.5369
vn -0.8372 0.1653 -0.5214
vn -0.9690 0.1770 -0.1723
vn -0.9690 0.1723 0.1770
vn -0.8315 0.1427 0.5369
vn -0.7460 0.5065 -0.4324
vn -0.8315 0.5369 -0.1427
vn -0.8372 0.5214 0.1653
vn -0.7460 0.4324 0.5065
vn -0.4324 -0.5065 0.7460
vn -0.1427 -0.5369 0.8315
vn 0.1653 -0.5214 0.8372
vn 0.5065 -0.4324 0.7460
vn -0.5214 -0.1653 0.8372
vn -0.1723 -0.1770 0.9690
vn 0.1770 -0.1723 0.9690
vn 0.5369 -0.1427 0.8315
vn -0.5214 0.1653 0.8372
vn -0.1723 0.1770 0.9690
vn 0.1770 0.1723 0.9690
vn 0.5369 0.1427 0.8315
vn -0.4324 0.5065 0.7460
vn -0.1427 0.5369 0.8315
vn 0.1653 0.5214 0.8372
vn 0.5065 0.4324 0.7460
vn 0.7460 -0.5065 0.4324
vn 0.8315 -0.5369 0.1427
vn 0.8372 -0.5214 -0.1653
vn 0.7460 -0.4324 -0.5065
vn 0.8372 -0.1653 0.5214
vn 0.9690 -0.1770 0.1723
vn 0.9690 -0.1723 -0.1770
vn 0.8315 -0.1427 -0.5369
vn 0.8372 0.1653 0.5214
vn 0.9690 0.1770 0.1723
vn 0.9690 0.1723 -0.1770
vn 0.8315 0.1427 -0.5369
vn 0.7460 0.5065 0.4324
vn 0.8315 0.5369 0.1427
vn 0.8372 0.5214 -0.1653
vn 0.7460 0.4324 -0.5065
vn 0.4324 -0.7460 0.5065
vn 0.1427 -0.8315 0.5369
vn -0.1653 -0.8372 0.5214
vn -0.5065 -0.7460 0.4324
vn 0.5214 -0.8372 0.1653
vn 0.1723 -0.9690 0.1770
vn -0.1770 -0.9690 0.1723
vn -0.5369 -0.8315 0.1427
vn 0.5214 -0.8372 -0.1653
vn 0.1723 -0.9690 -0.1770
vn -0.1770 -0.9690 -0.1723
vn -0.5369 -0.8315 -0.1427
vn 0.4324 -0.7460 -0.5065
vn 0.1427 -0.8315 -0.5369
vn -0.1653 -0.8372 -0.5214
vn -0.5065 -0.7460 -0.4324
vn 0.4324 0.7460 -0.5065
vn 0.1427 0.8315 -0.5369
vn -0.1653 0.8372 -0.5214
vn -0.5065 0.7460 -0.4324
vn 0.5214 0.8372 -0.1653
vn 0.1723 0.9690 -0.1770
vn -0.1770 0.9690 -0.1723
vn -0.5369 0.8315 -0.1427
vn 0.5214 0.8372 0.1653
vn 0.1723 0.9690 0.1770
vn -0.1770 0.9690 0.1723
vn -0.5369 0.8315 0.1427
vn 0.4324 0.7460 0.5065
vn 0.1427 0.8315 0.5369
vn -0.1653 0.8372 0.5214
vn -0.5065 0.7460 0.4324
s off
f 1/1/1 6/2/1 5/3/1
f 2/4/2 7/5/2 6/2/2
f 4/6/3 7/5/3 3/7/3
f 21/8/4 8/9/4 4/6/4
f 5/3/5 11/10/5 9/11/5
f 6/2/6 13/12/6 11/10/6
f 8/9/7 13/12/7 7/5/7
f 25/13/8 15/14/8 8/9/8
f 11/10/9 10/15/9 9/11/9
f 13/12/10 12/16/10 11/10/10
f 15/14/11 14/17/11 13/12/11
f 29/18/12 16/19/12 15/14/12
f 12/16/13 17/20/13 10/15/13
f 14/17/14 18/21/14 12/16/14
f 14/17/15 20/22/15 19/23/15
f 16/19/16 37/24/16 20/22/16
f 18/21/17 90/25/17 17/20/17
f 19/23/18 91/26/18 18/21/18
f 19/23/19 93/27/19 92/28/19
f 20/22/20 94/29/20 93/27/20
f 21/8/21 26/30/21 25/13/21
f 22/31/22 27/32/22 26/30/22
f 24/33/23 27/32/23 23/34/23
f 41/35/24 28/36/24 24/33/24
f 25/13/25 31/37/25 29/18/25
f 26/30/26 33/38/26 31/37/26
f 28/36/27 33/38/27 27/32/27
f 45/39/28 35/40/28 28/41/28
f 31/37/29 30/42/29 29/18/29
f 33/38/30 32/43/30 31/37/30
f 35/44/31 34/45/31 33/38/31
f 49/46/32 36/47/32 35/40/32
f 32/43/33 37/24/33 30/42/33
f 34/45/34 38/48/34 32/43/34
f 34/45/35 40/49/35 39/50/35
f 36/47/36 57/51/36 40/52/36
f 38/48/37 94/29/37 37/24/37
f 39/50/38 99/53/38 38/48/38
f 39/50/39 109/54/39 104/55/39
f 40/52/40 114/56/40 109/57/40
f 41/58/41 46/59/41 45/39/41
f 42/60/42 47/61/42 46/62/42
f 44/63/43 47/61/43 43/64/43
f 61/65/44 48/66/44 44/63/44
f 45/39/45 51/67/45 49/46/45
f 46/59/46 53/68/46 51/67/46
f 48/66/47 53/69/47 47/61/47
f 65/70/48 55/71/48 48/66/48
f 51/67/49 50/72/49 49/46/49
f 53/68/50 52/73/50 51/67/50
f 55/71/51 54/74/51 53/69/51
f 69/75/52 56/76/52 55/71/52
f 52/73/53 57/51/53 50/72/53
f 54/77/54 58/78/54 52/73/54
f 54/77/55 60/79/55 59/80/55
f 56/76/56 77/81/56 60/82/56
f 58/78/57 114/56/57 57/51/57
f 59/83/58 113/84/58 58/85/58
f 59/83/59 111/86/59 112/87/59
f 60/88/60 110/89/60 111/86/60
f 61/65/61 66/90/61 65/70/61
f 62/91/62 67/92/62 66/93/62
f 64/94/63 67/95/63 63/96/63
f 1/1/64 68/97/64 64/94/64
f 65/98/65 71/99/65 69/100/65
f 66/93/66 73/101/66 71/99/66
f 68/102/67 73/101/67 67/92/67
f 5/3/68 75/103/68 68/97/68
f 71/99/69 70/104/69 69/100/69
f 73/101/70 72/105/70 71/99/70
f 75/106/71 74/107/71 73/101/71
f 9/11/72 76/108/72 75/103/72
f 72/105/73 77/109/73 70/104/73
f 74/107/74 78/110/74 72/105/74
f 74/107/75 80/111/75 79/112/75
f 76/108/76 17/20/76 80/113/76
f 78/110/77 110/114/77 77/109/77
f 79/112/78 105/115/78 78/110/78
f 79/112/79 95/116/79 100/117/79
f 80/113/80 90/25/80 95/118/80
f 61/65/81 81/119/81 62/120/81
f 44/63/82 82/121/82 81/119/82
f 42/60/83 82/121/83 43/64/83
f 41/35/84 83/122/84 42/123/84
f 62/120/85 84/124/85 63/125/85
f 81/126/86 85/127/86 84/128/86
f 83/122/87 85/127/87 82/129/87
f 24/33/88 86/130/88 83/122/88
f 84/128/89 64/94/89 63/96/89
f 85/127/90 87/131/90 84/128/90
f 85/127/91 89/132/91 88/133/91
f 86/130/92 22/31/92 89/132/92
f 87/131/93 1/1/93 64/94/93
f 88/133/94 2/4/94 87/131/94
f 88/133/95 4/6/95 3/7/95
f 89/132/96 21/8/96 4/6/96
f 90/25/97 96/134/97 95/118/97
f 91/26/98 97/135/98 96/134/98
f 93/27/99 97/135/99 92/28/99
f 94/29/100 98/136/100 93/27/100
f 95/118/101 101/137/101 100/138/101
f 96/134/102 102/139/102 101/137/102
f 98/136/103 102/139/103 97/135/103
f 99/53/104 103/140/104 98/136/104
f 101/141/105 105/142/105 100/143/105
f 102/144/106 106/145/106 101/141/106
f 102/144/107 108/146/107 107/147/107
f 103/140/108 109/54/108 108/148/108
f 106/145/109 110/89/109 105/142/109
f 107/147/110 111/86/110 106/145/110
f 107/147/111 113/84/111 112/87/111
f 108/146/112 114/149/112 113/84/112
f 1/1/113 2/4/113 6/2/113
f 2/4/114 3/7/114 7/5/114
f 4/6/115 8/9/115 7/5/115
f 21/8/116 25/13/116 8/9/116
f 5/3/117 6/2/117 11/10/117
f 6/2/118 7/5/118 13/12/118
f 8/9/119 15/14/119 13/12/119
f 25/13/120 29/18/120 15/14/120
f 11/10/9 12/16/9 10/15/9
f 13/12/10 14/17/10 12/16/10
f 15/14/11 16/19/11 14/17/11
f 29/18/12 30/42/12 16/19/12
f 12/16/121 18/21/121 17/20/121
f 14/17/122 19/23/122 18/21/122
f 14/17/123 16/19/123 20/22/123
f 16/19/124 30/42/124 37/24/124
f 18/21/125 91/26/125 90/25/125
f 19/23/126 92/28/126 91/26/126
f 19/23/127 20/22/127 93/27/127
f 20/22/128 37/24/128 94/29/128
f 21/8/129 22/31/129 26/30/129
f 22/31/130 23/34/130 27/32/130
f 24/33/131 28/36/131 27/32/131
f 41/35/132 45/150/132 28/36/132
f 25/13/133 26/30/133 31/37/133
f 26/30/134 27/32/134 33/38/134
f 28/36/135 35/44/135 33/38/135
f 45/39/136 49/46/136 35/40/136
f 31/37/29 32/43/29 30/42/29
f 33/38/30 34/45/30 32/43/30
f 35/44/31 36/151/31 34/45/31
f 49/46/32 50/72/32 36/47/32
f 32/43/137 38/48/137 37/24/137
f 34/45/138 39/50/138 38/48/138
f 34/45/139 36/151/139 40/49/139
f 36/47/140 50/72/140 57/51/140
f 38/48/141 99/53/141 94/29/141
f 39/50/142 104/55/142 99/53/142
f 39/50/143 40/49/143 109/54/143
f 40/52/144 57/51/144 114/56/144
f 41/58/145 42/152/145 46/59/145
f 42/60/146 43/64/146 47/61/146
f 44/63/147 48/66/147 47/61/147
f 61/65/148 65/70/148 48/66/148
f 45/39/149 46/59/149 51/67/149
f 46/59/150 47/153/150 53/68/150
f 48/66/151 55/71/151 53/69/151
f 65/70/152 69/75/152 55/71/152
f 51/67/49 52/73/49 50/72/49
f 53/68/50 54/77/50 52/73/50
f 55/71/51 56/76/51 54/74/51
f 69/75/52 70/154/52 56/76/52
f 52/73/153 58/78/153 57/51/153
f 54/77/154 59/80/154 58/78/154
f 54/77/155 56/155/155 60/79/155
f 56/76/156 70/154/156 77/81/156
f 58/78/157 113/156/157 114/56/157
f 59/83/158 112/87/158 113/84/158
f 59/83/159 60/88/159 111/86/159
f 60/88/160 77/157/160 110/89/160
f 61/65/161 62/120/161 66/90/161
f 62/91/162 63/158/162 67/92/162
f 64/94/163 68/97/163 67/95/163
f 1/1/164 5/3/164 68/97/164
f 65/98/165 66/93/165 71/99/165
f 66/93/166 67/92/166 73/101/166
f 68/102/167 75/106/167 73/101/167
f 5/3/168 9/11/168 75/103/168
f 71/99/69 72/105/69 70/104/69
f 73/101/70 74/107/70 72/105/70
f 75/106/71 76/159/71 74/107/71
f 9/11/72 10/15/72 76/108/72
f 72/105/169 78/110/169 77/109/169
f 74/107/170 79/112/170 78/110/170
f 74/107/171 76/159/171 80/111/171
f 76/108/172 10/15/172 17/20/172
f 78/110/173 105/115/173 110/114/173
f 79/112/174 100/117/174 105/115/174
f 79/112/175 80/111/175 95/116/175
f 80/113/176 17/20/176 90/25/176
f 61/65/177 44/63/177 81/119/177
f 44/63/178 43/64/178 82/121/178
f 42/60/179 83/160/179 82/121/179
f 41/35/180 24/33/180 83/122/180
f 62/120/181 81/119/181 84/124/181
f 81/126/182 82/129/182 85/127/182
f 83/122/183 86/130/183 85/127/183
f 24/33/184 23/34/184 86/130/184
f 84/128/185 87/131/185 64/94/185
f 85/127/186 88/133/186 87/131/186
f 85/127/187 86/130/187 89/132/187
f 86/130/188 23/34/188 22/31/188
f 87/131/189 2/4/189 1/1/189
f 88/133/190 3/7/190 2/4/190
f 88/133/191 89/132/191 4/6/191
f 89/132/192 22/31/192 21/8/192
f 90/25/193 91/26/193 96/134/193
f 91/26/194 92/28/194 97/135/194
f 93/27/195 98/136/195 97/135/195
f 94/29/196 99/53/196 98/136/196
f 95/118/197 96/134/197 101/137/197
f 96/134/198 97/135/198 102/139/198
f 98/136/199 103/140/199 102/139/199
f 99/53/200 104/55/200 103/140/200
f 101/141/201 106/145/201 105/142/201
f 102/144/202 107/147/202 106/145/202
f 102/144/203 103/161/203 108/146/203
f 103/140/204 104/55/204 109/54/204
f 106/145/205 111/86/205 110/89/205
f 107/147/206 112/87/206 111/86/206
f 107/147/207 108/146/207 113/84/207
f 108/146/208 109/162/208 114/149/208
